HIERARCHY
ROOT Hips
{
	OFFSET 0.000000 0.000000 0.000000
	CHANNELS 6 Xposition Yposition Zposition Xrotation Yrotation Zrotation
	JOINT LeftUpLeg_virtual
	{
		OFFSET 0.000000 0.000000 0.000000
		CHANNELS 3 Xrotation Yrotation Zrotation
		JOINT LeftUpLeg
		{
			OFFSET 15.427100 -6.655098 0.678600
			CHANNELS 3 Xrotation Yrotation Zrotation
			JOINT LeftLeg
			{
				OFFSET 4.081073 -39.591068 13.024000
				CHANNELS 3 Xrotation Yrotation Zrotation
				JOINT LeftFoot
				{
					OFFSET -4.081074 -37.707932 -15.979700
					CHANNELS 3 Xrotation Yrotation Zrotation
					JOINT LeftToeBase
					{
						OFFSET 5.346399 -15.068900 20.645000
						CHANNELS 3 Xrotation Yrotation Zrotation
						JOINT LeftToe_End
						{
							OFFSET 2.754700 0.931300 11.300900
							CHANNELS 3 Xrotation Yrotation Zrotation
							End Site
							{
								OFFSET 0 0 0
							}
						}
					}
				}
			}
		}
	}
	JOINT RightUpLeg_virtual
	{
		OFFSET 0.000000 0.000000 0.000000
		CHANNELS 3 Xrotation Yrotation Zrotation
		JOINT RightUpLeg
		{
			OFFSET -15.569500 -6.655098 0.678600
			CHANNELS 3 Xrotation Yrotation Zrotation
			JOINT RightLeg
			{
				OFFSET -4.081825 -39.591045 13.023800
				CHANNELS 3 Xrotation Yrotation Zrotation
				JOINT RightFoot
				{
					OFFSET 4.081824 -37.707954 -15.979600
					CHANNELS 3 Xrotation Yrotation Zrotation
					JOINT RightToeBase
					{
						OFFSET -5.346400 -15.068900 20.645000
						CHANNELS 3 Xrotation Yrotation Zrotation
						JOINT RightToe_End
						{
							OFFSET -2.754700 0.931300 11.300900
							CHANNELS 3 Xrotation Yrotation Zrotation
							End Site
							{
								OFFSET 0 0 0
							}
						}
					}
				}
			}
		}
	}
	JOINT Spine_virtual
	{
		OFFSET 0.000000 0.000000 0.000000
		CHANNELS 3 Xrotation Yrotation Zrotation
		JOINT Spine
		{
			OFFSET -0.279200 12.230698 -2.892100
			CHANNELS 3 Xrotation Yrotation Zrotation
			JOINT Spine1
			{
				OFFSET -0.232667 10.192268 -1.242267
				CHANNELS 3 Xrotation Yrotation Zrotation
				JOINT Spine1_split
				{
					OFFSET -0.232667 10.192268 -1.242267
					CHANNELS 3 Xrotation Yrotation Zrotation
					JOINT Spine2
					{
						OFFSET -0.232667 10.192268 -1.242267
						CHANNELS 3 Xrotation Yrotation Zrotation
						JOINT Neck_virtual
						{
							OFFSET 0.000000 0.000000 0.000000
							CHANNELS 3 Xrotation Yrotation Zrotation
							JOINT Neck
							{
								OFFSET -0.418800 17.814194 8.416900
								CHANNELS 3 Xrotation Yrotation Zrotation
								JOINT Head
								{
									OFFSET 0.000000 7.031097 3.806800
									CHANNELS 3 Xrotation Yrotation Zrotation
									JOINT HeadTop_End
									{
										OFFSET 0.000000 24.646606 12.978600
										CHANNELS 3 Xrotation Yrotation Zrotation
										End Site
										{
											OFFSET 0 0 0
										}
									}
								}
							}
						}
						JOINT LeftShoulder_virtual
						{
							OFFSET 0.000000 0.000000 0.000000
							CHANNELS 3 Xrotation Yrotation Zrotation
							JOINT LeftShoulder
							{
								OFFSET 8.476499 7.247704 -3.868750
								CHANNELS 3 Xrotation Yrotation Zrotation
								JOINT LeftShoulder_split
								{
									OFFSET 8.476499 7.247704 -3.868750
									CHANNELS 3 Xrotation Yrotation Zrotation
									JOINT LeftArm
									{
										OFFSET 9.308998 -2.777710 0.208600
										CHANNELS 3 Xrotation Yrotation Zrotation
										JOINT LeftForeArm
										{
											OFFSET 29.972298 0.000000 0.000000
											CHANNELS 3 Xrotation Yrotation Zrotation
											JOINT LeftHand
											{
												OFFSET 26.026505 0.000000 0.000000
												CHANNELS 3 Xrotation Yrotation Zrotation
												End Site
												{
													OFFSET 0 0 0
												}
											}
										}
									}
								}
							}
						}
						JOINT RightShoulder_virtual
						{
							OFFSET 0.000000 0.000000 0.000000
							CHANNELS 3 Xrotation Yrotation Zrotation
							JOINT RightShoulder
							{
								OFFSET -7.570500 7.247704 -3.868750
								CHANNELS 3 Xrotation Yrotation Zrotation
								JOINT RightShoulder_split
								{
									OFFSET -7.570500 7.247704 -3.868750
									CHANNELS 3 Xrotation Yrotation Zrotation
									JOINT RightArm
									{
										OFFSET -9.308998 -2.777710 0.208500
										CHANNELS 3 Xrotation Yrotation Zrotation
										JOINT RightForeArm
										{
											OFFSET -29.972300 0.000000 0.000000
											CHANNELS 3 Xrotation Yrotation Zrotation
											JOINT RightHand
											{
												OFFSET -26.026505 0.000000 0.000000
												CHANNELS 3 Xrotation Yrotation Zrotation
												End Site
												{
													OFFSET 0 0 0
												}
											}
										}
									}
								}
							}
						}
					}
				}
			}
		}
	}
}
MOTION
Frames: 7
Frame Time: 0.03333333
1.956705 82.715622 0.188374 0.000000 0.000000 0.000000 7.646544 -67.613217 9.156358 -30.768520 12.226728 24.943142 32.785041 -6.098545 -1.770725 -8.253544 -2.976748 -16.008210 1.378689 0.117606 1.009734 0.000000 0.000000 0.000000 5.057978 -66.460684 7.428040 -19.149458 -11.948092 -33.200802 22.916330 -2.787067 -3.391208 -3.442722 -2.893427 20.526382 -4.078809 0.394161 0.475758 0.000000 0.000000 0.000000 2.162027 -64.653860 4.760728 16.443732 0.718466 -3.947875 4.490407 0.867224 -2.648635 0.471419 2.586988 0.498941 0.000000 0.000000 0.000000 4.032734 0.571235 -2.622200 -4.976860 2.956162 2.876257 -14.964448 52.519510 -3.741275 0.000000 0.000000 0.000000 4.680309 0.211864 -2.709148 2.635405 -3.291836 -11.262542 -3.158777 -5.883734 1.675362 -37.802621 28.544218 -33.177193 3.163984 -43.032019 4.459857 0.000000 0.000000 0.000000 5.287638 0.691981 -2.403448 1.854198 5.845525 9.304101 4.400818 4.772846 0.601366 4.826748 -9.539819 55.199629 -20.481985 35.224303 13.494932 0.000000 0.000000 0.000000 
1.455366 83.240150 2.135139 0.000000 0.000000 0.000000 6.952534 -68.149292 8.516139 -30.968337 13.013281 24.978463 33.150835 -5.921135 -1.529337 -7.967140 -2.542887 -16.237142 0.965204 0.023900 1.366621 0.000000 0.000000 0.000000 6.259526 -67.570939 8.118377 -18.673594 -11.282912 -33.105357 23.655710 -3.101229 -3.319504 -2.313767 -3.283500 19.977168 -3.933559 0.151658 0.929662 0.000000 0.000000 0.000000 3.120655 -65.158639 5.262465 16.294301 0.536475 -3.876539 4.433322 0.723267 -2.577010 0.299650 2.578310 0.461841 0.000000 0.000000 0.000000 3.743796 0.486336 -2.577231 -5.204435 3.098422 2.447428 -14.124760 52.420110 -4.360345 0.000000 0.000000 0.000000 4.582515 0.067851 -2.672363 2.679495 -3.760855 -10.919319 -3.449438 -5.790793 1.899948 -38.700671 28.662735 -32.605865 3.074014 -44.053303 4.583900 0.000000 0.000000 0.000000 5.223961 0.651450 -2.360528 1.831495 6.395293 9.671217 3.813519 4.015029 0.242128 3.649946 -9.694572 54.672492 -19.986809 33.775285 12.983416 0.000000 0.000000 0.000000 
0.854093 83.735657 4.595482 0.000000 0.000000 0.000000 6.649357 -68.911472 8.151329 -30.845933 13.939803 24.799968 33.828277 -5.518144 -1.436953 -8.529442 -1.705619 -15.496364 0.194118 -0.066410 1.769845 0.000000 0.000000 0.000000 7.699502 -68.708875 9.007519 -18.584393 -9.608545 -33.019303 25.672804 -3.435625 -2.854644 -1.887244 -4.382738 19.401548 -4.065317 0.007152 1.298596 0.000000 0.000000 0.000000 4.581395 -65.739123 6.161347 16.029178 0.335402 -3.740310 4.164398 0.338299 -2.421457 0.266395 2.508412 0.336500 0.000000 0.000000 0.000000 3.262100 0.111245 -2.397631 -5.234924 3.698133 1.932285 -13.256174 52.393729 -5.084949 0.000000 0.000000 0.000000 4.252785 -0.341378 -2.519568 2.714139 -4.236971 -10.700465 -3.631597 -5.327279 1.947640 -40.204136 28.492851 -31.636835 4.355037 -43.899023 5.693470 0.000000 0.000000 0.000000 4.875202 0.322353 -2.205931 1.883773 7.020375 10.061179 3.283334 3.363026 -0.003343 1.465463 -9.745722 53.843109 -18.917237 30.789222 11.869300 0.000000 0.000000 0.000000 
0.235883 83.863480 7.148876 0.000000 0.000000 0.000000 6.931569 -69.642767 8.233957 -30.738010 14.761524 24.494327 35.050004 -5.038891 -1.479454 -9.966991 -0.707336 -13.919295 -0.435379 -0.136600 2.029950 0.000000 0.000000 0.000000 9.434884 -69.529229 10.202452 -19.177653 -7.275138 -32.764592 28.155819 -3.582539 -2.054701 -2.487767 -5.739560 18.996998 -4.026711 0.041988 1.383153 0.000000 0.000000 0.000000 6.242542 -66.159931 7.262572 15.739230 0.094560 -3.563426 3.748828 -0.241386 -2.196446 0.330802 2.305244 0.289219 0.000000 0.000000 0.000000 2.700491 -0.495788 -2.115304 -5.058322 4.649639 1.397022 -12.610603 52.337264 -5.670181 0.000000 0.000000 0.000000 3.762856 -0.955128 -2.271263 2.742198 -4.693907 -10.639396 -3.842774 -4.617583 1.925574 -41.893225 27.928809 -30.621637 6.610742 -42.535888 7.476981 0.000000 0.000000 0.000000 4.343036 -0.257705 -1.976011 2.030133 7.567276 10.450239 2.937250 2.979897 -0.143067 -1.139411 -9.409265 53.079862 -17.658001 27.451133 10.592634 0.000000 0.000000 0.000000 
-0.272488 83.485519 9.309963 0.000000 0.000000 0.000000 7.968538 -70.047401 8.950440 -31.220634 15.243925 24.187551 36.969676 -4.727391 -1.588914 -12.022551 0.107476 -11.993466 -0.642984 -0.178501 2.093046 0.000000 0.000000 0.000000 11.341566 -69.725167 11.578976 -20.638294 -4.833435 -32.148464 30.730066 -3.477954 -1.006743 -4.358891 -6.989952 18.766375 -3.262200 0.278005 1.122394 0.000000 0.000000 0.000000 8.268087 -66.411780 8.653015 15.434223 -0.191116 -3.347032 3.287766 -0.925689 -1.942807 0.410858 1.823923 0.325700 0.000000 0.000000 0.000000 2.170442 -1.229901 -1.795356 -4.790078 5.803593 0.850567 -12.535339 52.057639 -5.819817 0.000000 0.000000 0.000000 3.230102 -1.664345 -1.980935 2.758845 -5.099128 -10.621160 -4.024491 -3.943727 1.813931 -43.472197 26.735633 -29.801440 9.281127 -40.469786 9.529924 0.000000 0.000000 0.000000 3.751100 -0.990324 -1.721706 2.256346 7.891175 10.804680 2.681092 2.790825 -0.260011 -3.485784 -8.653061 52.675857 -16.443324 24.789156 9.411571 0.000000 0.000000 0.000000 
-0.693972 82.358299 11.124371 0.000000 0.000000 0.000000 9.887225 -70.003982 10.428336 -32.625929 15.173627 23.998964 39.794366 -4.870631 -1.635666 -14.295623 0.495524 -10.335465 -0.616135 -0.204439 2.124306 0.000000 0.000000 0.000000 13.163036 -69.372619 12.980338 -23.022824 -2.811140 -31.161116 33.310266 -3.066148 0.235979 -7.490753 -7.958661 18.685523 -1.467673 0.627713 0.617813 0.000000 0.000000 0.000000 10.389819 -66.222625 10.139278 15.041885 -0.492114 -3.139084 2.879167 -1.603442 -1.721397 0.448830 1.264126 0.369959 0.000000 0.000000 0.000000 1.787965 -1.957427 -1.510833 -4.584289 7.019960 0.277488 -13.319898 51.426093 -5.299988 0.000000 0.000000 0.000000 2.784732 -2.339018 -1.712003 2.780577 -5.462740 -10.545223 -4.047532 -3.342811 1.548507 -44.826193 24.899195 -29.186918 11.904448 -38.227514 11.535178 0.000000 0.000000 0.000000 3.211433 -1.742103 -1.514263 2.544733 7.876975 11.069200 2.584851 2.657671 -0.285088 -5.086405 -7.575172 52.805296 -15.365581 23.336620 8.403320 0.000000 0.000000 0.000000 
-1.162867 80.594849 12.444340 0.000000 0.000000 0.000000 12.440192 -69.347341 12.526615 -34.872945 14.523574 23.855535 43.386536 -5.417863 -1.522418 -16.533639 0.556604 -9.272405 -0.665646 -0.237020 2.222456 0.000000 0.000000 0.000000 14.991101 -68.568829 14.518100 -26.363150 -1.655925 -30.090153 36.424173 -2.346633 1.599593 -11.399133 -8.556369 18.576182 0.752897 0.983186 0.021559 0.000000 0.000000 0.000000 12.741041 -65.516909 11.816579 14.560729 -0.759799 -2.948207 2.588432 -2.176327 -1.600851 0.453891 0.806819 0.473386 0.000000 0.000000 0.000000 1.601694 -2.560593 -1.328671 -4.594888 8.188716 -0.313322 -14.978890 50.416618 -4.089068 0.000000 0.000000 0.000000 2.480004 -2.871814 -1.550500 2.830720 -5.825213 -10.350632 -4.068114 -2.927763 1.322931 -46.079861 22.557299 -28.669921 14.111339 -35.988799 13.250077 0.000000 0.000000 0.000000 2.819171 -2.375345 -1.417899 2.894139 7.592951 11.281178 2.577559 2.512890 -0.267780 -5.983926 -6.517052 53.372348 -14.495792 23.153030 7.594412 0.000000 0.000000 0.000000 
